# xmcd CD database file
#
# Track frame offsets:
#	150
#	11462
#	24962
#	39552
#	53057
#	67210
#	78910
#	89862
#	102142
#	115897
#	127440
#	138810
#	150790
#	164142
#	177342
#	187992
#	201517
#	212510
#	224452
#	239460
#	251575
#
# Disc length: 3512 seconds
#
# Revision: 4
# Processed by: cddbd v1.4PL0 Copyright (c) Steve Scherf et al.
# Submitted via: CDex 1.40Beta8
#
DISCID=2e0db615
DTITLE=The Clovers - Down In The Alley - The Best Of The Clovers
DYEAR=1900
DGENRE=R&B
TTITLE0=One Mint Julep
TTITLE1=Good Lovin'
TTITLE2=Don't You Know I Love You
TTITLE3=Wonder Where My Baby's Gone
TTITLE4=Ting-A-Ling
TTITLE5=Crawlin'
TTITLE6=Hey, Miss Fannie
TTITLE7=Lovey Dovey
TTITLE8=Middle Of The Night
TTITLE9=Fool, Fool, Fool
TTITLE10=I'Ve Got My Eyes On You
TTITLE11=I Confess
TTITLE12=Your Cash Ain't Nothin' But Trash
TTITLE13=Little Mama
TTITLE14=Down In The Alley
TTITLE15=Nip Sip
TTITLE16=Devil Or Angel
TTITLE17=Blue Velvet
TTITLE18=In The Morning Time
TTITLE19=Love Bug
TTITLE20=If I Could Be Loved By You
EXTD=ID3G: 14
EXTT0=
EXTT1=
EXTT2=
EXTT3=
EXTT4=
EXTT5=
EXTT6=
EXTT7=
EXTT8=
EXTT9=
EXTT10=
EXTT11=
EXTT12=
EXTT13=
EXTT14=
EXTT15=
EXTT16=
EXTT17=
EXTT18=
EXTT19=
EXTT20=
PLAYORDER=
